<svg xmlns="http://www.w3.org/2000/svg" version="1" x="0" y="0" width="100%" height="100%" viewBox="0 0 800 355" enable-background="new 0 0 800 355" xml:space="preserve"><path d="M454.3 5.8c7-4.4 15.6-6 23.7-4.7 2.3 0.9 4 3 6 4.5 3.7 3.3 8.6 5.5 10.7 10.3 5.9 11.7 2.9 25.1 2.6 37.6 -0.4 3.8 1 7.9-1 11.4 -3.3 6.6-7.8 12.9-14.3 16.6 -3.6 1.9-6.6 4.8-10 7 10.9 1.2 18.7-8.2 29-9.8 3.4-4 6.7-8.8 12.1-10 6-0.9 11 3.4 14.3 7.8 -0.6 4-1.9 7.9-4.6 10.9 1.3 6.9-1.2 14-6.3 18.7 -8.6 8.1-19.5 13-30.2 17.7 -9 1.9-18.5 2.6-27.6 0.6 -5.6-1.4-11.6-1.6-16.9-4.3 -11.1-5.3-18.9-15.1-26.6-24.4 -3.2-3.3-2.6-8.2-4-12.3 -2.8 3.1-4.4 7.2-3.6 11.4 1 7.5 5.5 15.3 1.8 22.8 3.2 3.8 0.1 8.7-2.4 11.9 -4.5 3.3-10.2 6.4-16 5 -3.1-0.4-6.7-1.2-8.3-4.2 -2.9-9.2-4-19-3-28.7 -2.8-1.4-6.1-0.7-9.1-1.1 0.1 7 1.6 14.2-0.2 21.2 -0.7 3-2.6 5.3-4.6 7.4 0.2 3.1-1.4 6.4-4.6 7.2 -6.4 1.1-14.1-1.1-17.6-6.9 -3-7.4-0.4-15.9-3.9-23.2 -1.5-3.6-5.8-4.2-8.3-6.8 -2.8-4-0.8-9.2-2.1-13.6 -1-2.4-4.2-1.9-6.3-1.3 -4.2 1.6-8.5 3.6-13.2 2.7 -2.3 4.1-1.5 9-1.5 13.5 0.4 8.9 2.5 18.7-2.3 26.9 -5 7.7-16.1 13-24.7 8 -2.6-2.2-3.8-5.7-4.9-8.9 -3.2-11.7-0.8-23.9-1.4-35.8 -5.3-2.7-11.3-0.7-16.9-1.8 -7.4-1.2-15.3-2.2-21.4-6.9 -2.7-2.7-5.1-5.7-6.7-9.1 -2-4.7 0.9-9.6 2.7-13.8 1.9-4.3 6.8-5.8 11-6.8 10.7-2.1 21.7 2.6 32.4-0.5 0.3-4.6 0.6-9.7 4-13.2 1.8-2.1 4.6-2.3 7.1-3.2 4.9-1.6 8.9-5.6 14.2-5.9 3.9 0 6.5 3.7 7.3 7.2 0.5 4.6-1.9 9.5 0.8 13.8 7.5-4.5 17.7-1 24.2-7.4 2 0.1 4.7 1.3 6-0.8 1.3-3.1 0.9-6.7 2.5-9.6 1.2-2 3.8-2 5.8-2.5 2.6-3.6 3.5-8.5 7.3-11.1 5.6-2.4 10.7 2.8 13.8 6.9 1.8 7.8 2.1 16.1 0.2 24 4.8 4.2 1.5 10.6 2.2 15.8 0.6 3.5 4.7 3.1 7.4 3.3 3.1-11.8-4-22.8-4.2-34.5 -0.1-6 2.7-12.7 8.3-15.4 3.1-1.7 3.3-6 6.4-7.6 3.2-1.7 7-1.1 10.3-0.3 3.7 0.6 6.1 4.2 7.3 7.4 2.5 15.2-0.7 30.7 2.1 45.9 2.8-18.3 13.9-33.9 25.6-47.7C440.1 11.8 447.7 9.7 454.3 5.8zM456 9.5c-6.9 5.5-11.5 13.3-16.4 20.6 -2.2 3.5-5.2 6.5-6.3 10.6 -2.2 7.1-7.5 13.2-7.7 20.8 -0.2 3.3 1.8 6.1 2.9 9.1 1.3 5.6 0.9 11.5 2.4 17.1 0.4 2 2.2 3.2 3.4 4.6 4.9 4.7 8.3 11.1 14.4 14.5 2.8 1.7 6.2 1.9 9.3 1.7 3.1-0.3 5.9 1.4 9 1.6 6.5 0.5 12.8-1.8 19-3.3 2.3-0.6 4.9-0.9 6.7-2.5 5-4.2 10.8-7.2 16.4-10.7 6.4-3.8 12.5-9.3 13.3-17.1 -2.7-1.5-5.2-3.5-8.3-4.2 -4.8 1.6-6.4 7.1-10.4 9.8 -2.3 0.6-4.6 0.7-6.9 1.3 -9.1 2.7-16.2 10.3-25.8 11.6 -4.8 0.9-9.3-1.5-14-2.5 -4-1.1-8.7-3.3-9.5-7.9 -0.7-3-1.7-7.3 1.6-9.2 4.4-0.1 8.9 0.8 13.2-0.6 11.5-3 19.3-12.6 26.7-21.3 1.6-2.1 4.2-3.9 4.3-6.8 0.5-5.3 1-10.7 1.1-16 0.3-6.4-3.7-11.9-4.9-18.1 -4.7-1.2-7.5-5.5-11.5-7.8C470.3 2.4 461.9 4.7 456 9.5zM389.5 16.2c-1.3 1-0.5 2.9-0.6 4.3 1.4 15.6-1.7 31.6 2.3 47 -4.4 4.5-11.1 5.1-17 4.6 -3.2-0.4-6.9-2.2-7.5-5.7 -1.3-6.6 0.8-13.8-2.5-20.1 4.6-7.7-1.1-15.9-1.9-23.8 -3.1 0.1-7.8 1-7.7 5 -0.1 13.7 2.2 27.5-0.6 41.1 -0.7 3.2-4.2 4.6-6.5 6.4 -3.2 2-5.1 5.8-5.1 9.4 1.4 3.8 6.4 4.1 8.7 7.1 2.5 8.8 4.1 17.9 4.3 27 1.1 3.2 4.7 5 8 4.8 1.4-2.4 3-4.8 3.4-7.6 1.1-6.7-1.6-13.4-0.9-20.2 0.4-3.2 1.8-6.5 4.4-8.6 3.9-0.6 8 0.3 11.7-1.3 3.2-1.7 7.9 0.2 8.4 4 0.7 4.9-0.5 10.1 1.6 14.8 1.6 3.8-0.8 9.2 3 12 3.9 0.7 9.3 1.1 11.4-3 0.7-8.8-4.6-17.3-2.6-26.1 0.8-4.1 3.7-7.2 5.3-10.8 1.3-2.6-0.7-5-2-7.2 -3.1-4.7-4.2-10.3-4.5-15.8 -0.6-11.3 1.8-22.7-0.1-33.9C401.6 13.8 393.3 12.3 389.5 16.2zM297.4 34.9c-2.5 1.7-5.4 2.5-7.9 4 -2.4 3.6 0 8.1-0.9 12.1 -1.5 3.3-4.8 5.6-8.4 6.3 -6.4 1.2-12.8-0.7-19.2-0.8 -5.6 0.2-11.8-1.7-16.7 1.9 -0.8 2.3-2.2 4.5-2.2 7 1.2 2.9 4.1 4.7 6.7 6.3 3.4 2.2 7.5 0.7 11.2 1.9 7.5 2.2 15.5-0.4 22.9 2.1 2.5 1.1 5.7 2.7 5.8 5.8 1.3 12.2 1.9 24.7 0.3 36.9 -0.2 4.1 2.3 7.7 5.5 10 2.5-1.3 5.4-2.3 7.5-4.2 1.6-1.5 1.3-3.8 1.5-5.7 0.2-9.3 1.5-18.7 0.3-28.1 -0.5-3.7-2-7.2-1.5-11 0.3-3.1 2.7-6.2 6-6.3 11.1-1 22.6-5.2 29.9-14 1.5-3.9 1.2-8.7-1.8-11.9 -5.9 1.1-11.3 3.7-17 5.6 -5 1.8-10.8 2-15.3-1.2 -0.2-1.4-0.4-2.9-0.7-4.3 1.7-4.5-0.8-9-0.8-13.5C300.6 33.7 298.8 33.8 297.4 34.9z"/><path d="M461.3 24.8c3.5-2.9 8.4-5.7 13-3.6 5.2 2.7 7.9 9.7 5.6 15.2 -2.7 6.6-8 11.7-10.7 18.2 -5.4 0.7-9.9 4.4-15.3 5.3 -3.2 0.3-7.8-1.6-7.5-5.4 0.2-7 5.3-12.5 7-19.1C454.5 30.9 458.1 27.8 461.3 24.8zM452.3 52.5c1 1.3 2.3 3.5 4.2 2.5 4.1-2.1 7.3-6.5 12.5-6 1.6-4.5-4.2-5.5-7-7.2C457.2 44 457.4 50.7 452.3 52.5z"/><path d="M126.5 87.2c5.4-1.1 10.9-2.3 16.5-1.8 10.8 0.8 22 0.6 32.1 5 4.3 1.7 7.7 5.2 11.9 7.1 9.3 4.1 16.1 13.8 16.1 24.1 0.5 7.3 1.1 15.7-4.8 21.1 0 2.9 0.5 5.9 0.1 8.8 -0.4 2.6-3.2 3.4-5.2 4 -7.2 2-15 3.5-22.3 1.2 -4.9-1.5-9.1-5.7-9.4-11 -0.8-3.8-1-10.3-6.3-10.2 -15.4-0.5-31.8-0.8-45.9 6.3 -4.5 2.1-9.5 2.8-14.1 4.9 -4.4 2-9.4 1.3-13.8 3.2 -10 4.1-19.9 9.5-26.6 18.2 -4.4 5.5-5.8 12.7-7.1 19.4 1.5 2.4 4.2 3.5 6.1 5.5 1.6 1.3 1.3 3.7 1.7 5.5 13.1 10.8 24.8 24.3 41.1 30.2 1 1.2 2.2 2.2 3.7 2.8 18.8 7.4 34.1 21.4 52.6 29.3 12.8 4.5 23.1 13.7 33.7 21.9 6-17.4 4.9-36 5.2-54.1 0-4.7-2.1-9.2-2-14 0-5.7 0.9-11.6 3.8-16.6 2.8-3.5 7.1-5.1 11-7.1 0.8 0.5 1.7 1 2.5 1.6 1.4-1.3 2.8-2.7 4.2-4 5.3-0.3 11.1 0.1 15.2 3.8 2.6 2 3.5 5.2 4.3 8.2 1.4 5.8 4.2 11.3 4.9 17.2 0.6 4.4-1.7 8.6-1 13 1 8.6 1.8 17.4-0.2 25.8 -0.3 3.4-4.1 7.1-1 10.2 0.8-1.9 1.5-3.8 2.1-5.8 4.8-18.5 5.1-38.2 13.2-55.7 1.9-4.5 6-7.8 10.6-9.1 2.6-0.6 5.2 0.8 7.8 0.4 3.8-1.9 5.2-6.9 9.5-8.1 7.3-1.8 14.9 0.9 21.1 4.8 5.2 4.4 4.5 12.1 8.5 17.4 1.9-6.2 5.3-12.5 11.3-15.5 1.9-1.2 3.9 0.5 5.7 1.1 2.6-2.2 4.8-4.9 7.5-6.9 1.2-1 2.9-1.1 4.2-0.1 3.9 2.2 8.7 2.8 12.1 5.9 2.5 2.3 5.3 5.1 5.5 8.7 1.1 10.1-2.4 20.7 2.1 30.4 4.4-2.7 9.8-3.2 14.3-5.7 2.4-1.4 1.7-4.4 1.6-6.6 -1.3-11.5-1.4-24.3 5.6-34.2 4.8-7.1 13.2-10 20.7-13.4 8.2-3.4 17.6-6.1 26.4-3.3 12.9 5.3 20.9 17.6 26.8 29.6 3-13.3 15.1-23.4 28.3-25.8 5.6-1.1 9.9-5 15.2-6.8 9.6-4.1 19.7-10.8 30.6-7.6 7.1 4 9.9 12.4 11.2 20 -1.1 1.8-2.5 3.5-3 5.6 0.8 1.8 2.2 3.3 3.1 5.1 0.6 2.2 0 4.6-0.2 6.8 -5.1 3.1-11 4-16.8 4.4 -6.9 0.4-13.4 2.6-20.2 3.6 -2.1 0.1-3 2.1-3.9 3.7 3.9 3 5.2 7.8 7.8 11.7 4.8 4.9 9.6 9.7 14.3 14.8 6.9-10.1 10.2-23.1 20.5-30.5 7-5.1 16.1-4.4 24.1-2.9 2.9 1.2 5.2 3.7 8.2 4.6 7.2 2.6 15.3 4.3 20.7 10.2 4.3 4.4 4.4 10.9 6.3 16.4 2.8-6.5 7.4-13.8 15.1-14.7 5.2-0.6 10-3 15.2-3.4 3.3-0.4 5.5 2.4 7.4 4.6 4.5 1 8.6 3 12.5 5.2 1.2-3.6 1.7-7.8-0.3-11.1 -2.9-4.3-7.7-7.2-10-12 -1.3-2.8-0.8-6.1 1.1-8.4 4.4-5.8 8.5-11.8 11.7-18.3 1.8-3.8 7.2-7.3 11.1-4.3 9.8 6.7 14.3 18.2 20.3 28 3-7.4 7.1-14.3 11-21.2 14-20 39.5-32.5 64-27.8 7.6 1.9 13.2 7.9 18.9 12.9 -0.2 7.7 1.5 15.4 0 23 -0.5 3-2.6 5.4-4.6 7.5 2.6 3.2 0.5 7.3 0.5 10.9 -4.2 3.7-7.5 10-13.7 10.3 -4.7-0.6-9.1-3-12.7-6.1 -3.1-2.7-1.7-7.3-3.4-10.6 -1.4-0.4-2.8 0.1-4 0.7 -5.2 2.2-10.9 3.5-15.2 7.4 1.7 6.3 6.5 10.9 11.6 14.7 3.7 2.6 6.8 6 10.9 8 3.1 1.6 6.6 2.6 9.1 5.1 1.9 1.7 1.9 4.4 2.4 6.8 1.6 1.9 3.7 3.8 4.1 6.4 0.6 3.4 0.1 7-0.7 10.4 -1 4.9-5.3 8.5-5.1 13.7 0.3 6.3-2.7 12-6.2 17 -7.3 9.9-18.6 15.6-29.7 20.1 -6.2 2.3-12.2 5.6-19 5.8 -8.6 0.7-18.2-0.2-24.9-6.2 -3.4-4-5.8-9.3-5.7-14.6 2.9-5.2 8.1-9.4 14.2-9.3 0.9-1.9 1.6-4.3 3.8-5.2 3.9-1.7 8.3-2 12.1-3.8 3.8-1.7 7.9-3.1 10.8-6.2 3.6-3.9 1.9-10.1-1.2-13.8 -5.7-6.5-14.5-9.3-20.2-15.8 -2.2-2.5-3.4-5.6-4.9-8.5 -1.4 3.7-0.2 7.7-0.1 11.5 0.5 8 0.5 16.6-3.1 24 -1.7 3.8-5.5 5.9-8.1 8.9 -4 4.3-6.9 10-12.5 12.4 -2.6 0.9-6.1 1.8-8.3-0.5 -6-5.1-9.5-12.4-14.1-18.7 -5.2 5.7-9.3 12.6-16 16.7 -1.1 2.7-2.7 5.4-5.5 6.6 -3.7 1.7-8.3 4-12.2 1.4 -5.4-2.7-6.1-9.5-5.1-14.8 1.5-7.5 5.6-14.9 3.1-22.7 -1.6 2.5-2.8 5.2-3.8 8 -1.4 4.2-5.4 6.6-7.9 10.1 -5.1 6.5-8.9 14.8-16.8 18.2 -3.2 1.6-6.2 3.6-9.8 4.1 -6.7 1.2-13.9 2.1-20.5-0.3 -4.3-1.5-7.5-4.9-10.9-7.9 -6-5.2-8.3-13-12.2-19.6 0.1 3.8 0.2 8-2.4 11.2 -4.9 6.2-12.9 8.4-19.4 12.5 -11.9 8.1-27.6 7.9-41 4.1 -4.1-1.4-8.7-2.2-12-5.1 -3.6-4.2-3.1-10.3-3.1-15.5 0.9-7.5 8.1-12.1 14.8-14.3 1-1.4 1.9-3.2 3.7-3.7 4.5-1.8 9.2-2.9 13.8-4.5 0.2-3.1-0.4-6.1-1.8-8.9 -8.2-1.9-13.4-8.8-17.9-15.3 -1.8 7.7-0.3 16.7-5.5 23.3 -1.4 2.2-4.1 2.4-6.4 2.9 -3.6 0.7-6.4 3.6-10 4.2 -8.8 1.6-17.5 4.8-26.6 4.1 -2 8.1-1.2 17-5.4 24.5 -5.5 9.5-21.1 9.7-27.1 0.7 -5.9-7.5-0.3-17.7-4.2-25.8 -1.9-3.8-6.5-4.3-10.1-5.1 -2.6 5.3-2.9 11.3-3.1 17 0 5.9-3.8 11-3.5 16.9 0.2 3.6-1.2 7-3.8 9.4 -0.1 0.6-0.4 1.8-0.5 2.4 -4.7 2.3-10.2 3.5-15.3 1.6 -7.1-2.2-12.7-8.5-13.8-15.9 -1.9-12.1 3.3-23.9 3.4-36 -4.4 6.6-6.2 14.9-11.9 20.6 -2.7 2.9-6.6 3.9-10.3 4.7 -4.9-3.2-11.2-4.8-14.1-10.4 -4.7 5.6-2.6 14.6-9.1 19.1 -1.4 6-5.1 11.9-10.8 14.6 -6.3 1.4-12.3-2.3-18.3-3.8 -5.3-4.2-8-10.8-12.3-15.9 -3.5 5.4-4.5 12.8-10.8 15.9 -0.1 2 0.2 4.3-1.3 5.9 -2.3 2.7-4.7 5.5-7.8 7.1 -5.1 1.8-10.6-0.1-15.5-1.8 -2.8-0.9-4.4-4.3-7.6-4.3 -4 5-2.8 13.2-9.1 16.6 -0.6 3.6-1.2 7.2-3.1 10.4 -3.9 6.7-10.8 11-17.6 14.3 -11 5.1-22.3 10.3-34.6 10.6h-0.5c-4.8-0.3-9.6-1.2-14.3-2.2 -22.7-3.9-46 0.5-68.7-4.1 -6.9-1.3-13.3-4.1-19.8-6.3 -4.8-1.7-9.5-4.9-11-9.9 -1.6-5.2-3.7-10.8-2.2-16.3 3.2-6.9 10.5-11.8 18.2-11.9 7-6.4 17.5-9.6 26.6-6.1 8.9 3.4 18.5 5.7 28.1 5 4.7-0.2 9.2-2.2 14-1.9 11.8 0.4 23.6 0.9 35.3 0.2 0.8-0.8 1.7-1.5 2.5-2.3 -13.2-8.5-28.3-13-42.4-19.6 -3.7-1.7-6.5-4.8-9.8-7.1 -7.6-5.5-16.1-9.6-23.7-15.2 -3.1-2.2-5.8-4.9-8.9-7.1 -14.4-9.6-29.5-18.9-40.2-32.8 -5.3-6.7-8.7-14.8-9.8-23.2v-6.4c0.5-7 3.1-13.5 5.5-20 2.1-5.3 4.5-10.6 8.1-15.1 2.8-3.5 6.8-5.9 9.1-9.9 4-6.3 10.9-9.6 16.1-14.9 3.7-3.9 8.8-5.9 13.4-8.7C75.7 106.3 99.8 92.8 126.5 87.2zM92.9 102.3c-17 7.2-32.7 17-48.3 26.8 -2.4 1.4-3.1 4.3-4.7 6.3 -4.3 5.7-11 9-15.3 14.6 -1 1.2-1.1 2.9-1.4 4.4 -1.1 6.9-4.7 13.1-5.9 20 -0.8 4.6-0.4 9.7 2.4 13.6 3.7 5.3 4.3 12.2 8.9 16.9 0.5 6.4 7.7 7.7 11.5 11.7 2.3 2.5 5.7 3.5 8.2 5.8 4.3 3.8 7.8 8.6 12.9 11.4 2.3 0 4.8-0.2 6.8 1.1 4.5 2.7 6.6 8.1 11.2 10.6 18.3 10.6 38.5 17.6 55.9 29.7 3.2-0.3 6.6-0.7 9.5 1 6.1 3.4 8.9 10.7 15.1 13.9 2.1 1.2 4.9 1.4 6.4 3.6 1.4 1.7 4 4.5 1.6 6.6 -6.2 2.9-12.8 4.4-19.6 4.3 -3.4-0.2-6.7-1.1-10.1-1 -3 0.7-5.7 2.1-8.7 2.7 -13.9 2.8-28.1-1.7-42.1 0.6 -11.3 2.3-22.8-0.5-33.6-3.8 -7-1.5-15-1.4-21.1 2.9 -0.3 5-2 11.3 2.1 15.1 11.3 7 24.9 8.5 37.7 10.9 4.9 1.1 10 0.7 15 1.4 7.3 1 14.5 2.8 21.8 3.4 5.2 0.9 9.9-2.3 15-1.8 6.6-0.3 13.9 2 20-1.3 7.9-6.7 19-4.5 27.8-9.2 11.4-7.6 17.5-22.5 13.9-35.9 -0.3-1.2-1.6-1.6-2.5-2.4 -2.1-1.2-2.9-3.7-4.9-5 -25.8-18.7-55.4-31.1-82.6-47.4 -7.6-3.4-14.8-7.6-21.8-12.2 -6.2-7.1-14.6-12-20.4-19.5 -2.1-2.4-2.4-6-5.2-7.9 -6.4-4.8-6.7-13.5-8.5-20.6 0.1-5.5 1.8-11 3.9-16.1 2-4.9 6.6-8.2 11.6-9.4 1.5-2.5 3.1-5 5.5-6.6 6.3-4.3 14.5-4.1 21.1-7.8 2.6-1.4 4.3-4.1 7.2-5 12.4-4.1 24.8-8.4 37.7-11 16.1-3.3 33.6-3.9 48.9 3 2.9 1.5 7 1.2 9.1 4.1 2.3 3.7 0.6 8.5 2.7 12.2 4.1 3.6 11.6 0.1 11.5-5.5 0.2-5.7 0-11.4-1.1-17 -3.7-10.2-15.2-13.3-23.6-18.4 -5.3-4-12.3-2.8-18.3-4.9 -4.2-1.6-8.7-1.1-13.1-1C125.7 90.9 108.8 95.5 92.9 102.3zM731.7 159.3c-15.3 7-29.2 19.4-33.8 36.1 -4.6 10.3-2 21.9 2 31.9 2.7 0.8 5.4 1.8 7.5 3.8 4.3 3.6 7 9.2 12.3 11.5 4.3 1.7 8.4 4.2 11.2 7.9 2 2.7 2.9 6.8 0.6 9.6 -4.1 6-10.8 9.5-17.5 11.9 -3.3 1.2-7 1.7-9.9 3.9 -4.5 3.3-10.4 3.1-15.2 5.7 -5 2.5-3.4 10.7 1.3 12.6 6.1 3.2 12.8-0.5 18.7-2.2 3.5-1.3 7.6-0.3 10.7-2.6 13.1-8.3 27.9-16.6 34.4-31.6 2.5-5.2-0.6-10.7-3.2-15.2 -1.8-2.8-2.3-6.7-5.3-8.5 -11-7.9-23.7-14.4-30.8-26.4 4.3-6.3 2.3-15 7.7-20.6 2.9-3.2 5.7-6.5 9.4-8.7 6-3.9 13.2-5.4 20.2-6.4 6.4 3.3 3.3 11 5.1 16.5 3.8 0.6 8.3 1.5 11.5-1.2 1.9-1.3 0.8-3.8 0.9-5.7 -0.6-6 1.3-12.1-0.6-17.9 -1.6-4.7-6.7-6.6-11.1-7.5 -5.7 0-11-3.2-16.7-2C737.1 154.1 735.2 158 731.7 159.3zM474.1 185.6c-5.7 4.3-8 12-7.4 18.9 0.8 9 5.3 17 9.7 24.6 9 3.5 15 11.9 17.6 21 -9.4 8.3-23.5 3.6-33.4 10.7 -0.4 4.7-1.1 9.8 1 14.1 1.1 2 2.8 4.4 5.4 4.2 10.3 0.6 20.9 0.4 30.8-3 5.7-2 11.2-5.2 14.9-10.1 1.8-7.5 3.6-15.8 1.1-23.3 -6.7-12.1-18.6-20.4-25-32.7 2.6-4.1-0.1-9.1 1.5-13.4 2.4-2 5.4-3.2 7.4-5.7 9.1-7.2 21.9-4.7 31.6-10.6 -0.2-2.9 0.2-5.8-0.7-8.6 -1.6-3.1-3.7-6.7-7.5-7.3 -4.2-0.7-8.5-0.8-12.7-0.1C496 169.9 484.6 177.3 474.1 185.6zM402.1 178.6c-1.6 1.1-3.6 1.6-4.7 3.3 -9.7 13-12.7 29.6-12.5 45.4 -4.2 2.6-9.1 3.1-13.8 4.1 -1.8 0.3-4 2.1-3.2 4.1 1 3.3 2.6 6.6 1.3 10 3.9 2.3 10-0.3 12.4 4.4 2.9 7.9 1.8 17.2 6.6 24.4 3.2-0.1 7.1 0.5 9.6-2 2.7-2.9 2.3-7.1 2.1-10.7 -0.5-6.1-1.4-12.8 2.3-18.2 13.2 1.8 25.8-2.9 38.6-5.1 2.3-3.9 5.9-6.9 7.7-11 1-2.2-0.1-4.6-0.9-6.7 3.1-9.8-4.4-18.1-6.2-27.3 -3.3-5.4-7.7-10.3-12.6-14.3 -5.4-4.4-12.7-5.8-19.6-4.9C406.3 174.8 404.5 177.2 402.1 178.6zM652.6 177.1c-1 2.9-2.3 5.7-3.5 8.5 -0.6 2.8 2.7 4.1 4.3 5.7 -0.2 1.6-0.3 3.2-0.5 4.8 7.1 6.9 8.5 17.2 10.2 26.4 -4 5 0 11.8-3.1 17 -1.6 2.9-5.4 2.1-7.9 0.9 -6.4-3.6-7.7-12.4-14.7-15.2 -4.4-1.3-9.9-1.3-12.4-5.9 -3.4 0.6-4.8 4-6.3 6.7 -1.6 3.3-0.8 7 0.6 10.2 -2 7.4-4.6 15.2-2.4 22.9 -2.8 6.1-2.8 12.9-3.1 19.4 6.9 0.6 11.5-5.2 15.2-10.1 4.2-4.9 4.8-11.7 8.8-16.7 4 3.7 7.4 8.1 12.1 11 3 1.9 6.7 2.8 10.1 1.8 7.2-2.9 12.7-9.6 14.7-17.1 3.6-13.1 0.8-26.7 0.5-40 -0.2-2.9 0.5-6.1-1.2-8.7 -4.6-8.4-7.4-18.8-16.4-23.7C655.6 173.4 653.3 175.2 652.6 177.1zM279.7 192.2c-7.2 3-9.1 11.2-12.8 17.3 -3.7 4.8 0.2 11-3 16.1 -1.3 15.8-6.2 31.2-5.7 47.1 1.4 6 8.3 7.6 13.5 8.8 6.5-5.6 8.4-14.7 7.2-22.9 3.7-4.2 1.1-9.4 0-14 -1-3.4 2.6-5.7 2.4-9 0.3-5.6 0.5-12.6 6.5-15.1 3.6 3.7 2.5 9.1 2.1 13.7 6.9 4.1 6.2 13.2 10.6 19.1 2.8 3.9 9 4.9 12.5 1.4 3-3.1 4.9-7.1 7.6-10.5 3.2-4.1 5-9.9 10.4-11.7 3-1.2 4.4 2.5 6.1 4.2 0.4 10 1.3 20.1-0.7 29.9 -0.6 3.4-2.1 6.6-2.6 10.1 -0.4 3.6 0.9 7.4 3.4 10.1 4.1 1.5 7.4-2.2 10-4.8 2.6-2 1.7-5.5 2.1-8.3 0.8-11.6 4.7-23.4 1.7-35 -5.4-11.6-2.3-24.6-4.1-36.8 -2.5-5.5-8.9-7.5-14.4-8.7 -4.7 5.1-7.1 11.7-10.4 17.6 -1.5 3-4.6 5.3-4.5 9 -0.5 5-0.6 11.4-5.6 14.2 -3.7-1.5-4.1-5.8-5.4-9 -3.2-8.2-6.9-16.3-9.4-24.8C294.1 193.8 286.3 191 279.7 192.2zM213.5 193c-3.9 4.4-2.8 10.8-1.7 16.1 1.3 5.7 2.5 12.2-0.9 17.5 1.4 11.5 0.2 23.2-2.1 34.5 -0.6 4-2.1 7.9-1.3 12 1 5.4 0.1 11 2 16.2 0.4 1.1 0.9 2.5 2.3 2.5 4.1 0.8 8.6 1 12.3-1.1 4.3-3.7 5.2-9.8 4.5-15.2 -0.8-6.7-2.5-13.8 0.7-20.2 -1.7-8.6 3.8-17.5-0.5-25.7 3.7-6.7 1.2-14.3-1.2-21 -1.8-4.3-0.9-9.7-4.5-13.2C220.9 192.6 216.7 191.1 213.5 193zM544.6 214.1c-2.8 6.5-1.3 13.8-3.5 20.4 -1.1 3.8-4 6.6-7.3 8.7 -2.3 12.3 2.2 25.7 12.2 33.3 7 3.9 15.4 1.7 23 1.9 3.9 0.6 6.8-2.2 10-4 5.2-3.3 11.1-6.5 13.5-12.6 3.8-8.8 1.8-18.7-1-27.5 -0.8-8.1-5.7-15.2-12.1-20.1 -9 0-15.3-8.5-24.3-8.4C550.5 206.8 546.5 210 544.6 214.1z"/><path d="M410.5 193c3.2-4.3 10.3-3.3 13.2 0.8 3.8 5.1 4.4 12.2 9.4 16.5 4.8 3.1 2.8 11.9-2.9 12.5 -6.1 1-12.2 1.7-18.3 3 -3.2 0.8-6.5 0.2-9.7-0.8 -2.1-6.9 4.4-13 2.1-20C406.9 201.3 407.8 196.6 410.5 193zM406.8 216c-0.8 1.7-2.5 4.9 0.4 5.6 4.1 0.6 8.1-0.9 12.1-1.3 0-7.3-4.8-13.1-8-19.3C407.9 205.4 409.4 211.3 406.8 216z"/><path d="M556.2 231.8c5.7-3.7 14.6-4.3 19.5 1.2 3 4.1 4.7 9.5 3.7 14.6 -4.7 2.1-3.7 7.8-5.5 11.8 -1.5 2.9-5.1 2.2-7.8 2.4 -4.2 0-8.4 1.5-12.6 0.4 -2.4-0.7-3.5-3.2-3.7-5.6C548.7 247.8 552.6 239.5 556.2 231.8zM555.4 257.6c4.3 0.9 8.8 0.6 13.2 0.2 1.6-0.2 1.7-2.2 2.3-3.3 -2.2-0.9-4.9-1.6-5.7-4.1 -1.6-4.4-0.9-10.4-5.8-12.8C554.4 243 553.2 250.8 555.4 257.6z"/><path fill="#ED3133" d="M456 9.5c6-4.8 14.4-7.1 21.8-4.8 4.1 2.3 6.8 6.6 11.5 7.8 1.2 6.2 5.2 11.6 4.9 18.1 0 5.4-0.6 10.7-1 16 0 2.9-2.7 4.7-4.3 6.8 -7.4 8.7-15.2 18.3-26.7 21.3 -4.3 1.4-8.8 0.4-13.1 0.6 -3.3 1.9-2.2 6.2-1.6 9.2 0.8 4.6 5.5 6.8 9.5 7.9 4.6 1 9.1 3.4 14 2.5 9.6-1.3 16.7-8.9 25.8-11.6 2.3-0.6 4.6-0.7 6.9-1.3 3.9-2.8 5.5-8.3 10.4-9.8 3.1 0.7 5.6 2.7 8.3 4.3 -0.8 7.8-6.9 13.4-13.3 17.1 -5.5 3.5-11.4 6.5-16.4 10.7 -1.8 1.7-4.4 1.9-6.7 2.6 -6.2 1.5-12.5 3.8-19 3.3 -3-0.2-5.8-1.9-8.9-1.6 -3.2 0.2-6.5 0-9.3-1.7 -6.1-3.4-9.5-9.8-14.4-14.5 -1.3-1.4-3-2.6-3.4-4.6 -1.4-5.6-1.1-11.5-2.3-17.1 -1.1-3-3.1-5.8-2.9-9.1 0.2-7.7 5.5-13.8 7.8-20.8 1.1-4.1 4.1-7.1 6.3-10.6C444.5 22.8 449 15 456 9.5zM461.3 24.8c-3.2 3-6.8 6.1-7.8 10.6 -1.7 6.6-6.9 12.1-7 19.1 -0.3 3.8 4.3 5.7 7.5 5.4 5.4-0.9 9.8-4.6 15.3-5.3 2.7-6.6 8-11.7 10.7-18.2 2.3-5.5-0.4-12.5-5.6-15.2C469.7 19.2 464.8 21.9 461.3 24.8z"/><path fill="#ED3133" d="M389.5 16.2c3.8-3.9 12.1-2.4 13 3.4 1.9 11.2-0.4 22.6 0.1 33.9 0.3 5.5 1.4 11.2 4.5 15.8 1.3 2.1 3.3 4.6 2 7.2 -1.7 3.7-4.6 6.8-5.3 10.8 -2 8.9 3.3 17.3 2.6 26.2 -2.1 4.1-7.6 3.7-11.4 3 -3.8-2.8-1.4-8.1-3-12 -2.1-4.7-0.8-9.9-1.6-14.8 -0.5-3.8-5.2-5.7-8.4-4 -3.7 1.7-7.8 0.7-11.7 1.3 -2.6 2.1-3.9 5.3-4.4 8.6 -0.8 6.8 2 13.4 0.9 20.2 -0.4 2.8-2 5.2-3.4 7.6 -3.3 0.2-6.9-1.5-8-4.8 -0.2-9.1-1.8-18.2-4.2-27 -2.3-3-7.3-3.3-8.7-7.1 0.1-3.6 1.9-7.5 5.1-9.4 2.4-1.9 5.8-3.2 6.6-6.4 2.8-13.6 0.5-27.4 0.6-41.1 -0.1-3.9 4.6-4.9 7.7-4.9 0.7 7.9 6.5 16.1 1.9 23.8 3.3 6.3 1.1 13.4 2.5 20.1 0.6 3.5 4.3 5.3 7.5 5.7 6 0.5 12.7-0.1 17-4.6 -3.9-15.4-0.9-31.4-2.2-47C389 19.1 388.2 17.1 389.5 16.2zM297.4 34.9c1.4-1.1 3.2-1.2 5-1 0 4.5 2.4 9 0.8 13.5 0.3 1.4 0.5 2.9 0.7 4.3 4.5 3.2 10.3 3 15.3 1.2 5.7-1.9 11.1-4.5 17-5.6 3 3.2 3.3 8 1.8 11.9 -7.3 8.8-18.8 13-29.9 14 -3.3 0.1-5.7 3.2-6 6.3 -0.4 3.7 1.1 7.3 1.5 11 1.2 9.3-0.1 18.7-0.2 28.1 -0.1 2 0.2 4.3-1.5 5.8 -2.1 2-5 2.9-7.5 4.3 -3.2-2.3-5.7-5.9-5.5-10 1.6-12.2 1-24.7-0.3-36.9 -0.2-3.1-3.3-4.7-5.8-5.8 -7.4-2.5-15.4 0.1-22.9-2.1 -3.6-1.3-7.8 0.2-11.2-1.9 -2.6-1.6-5.5-3.4-6.7-6.3 0-2.5 1.5-4.7 2.2-7 4.9-3.6 11.1-1.7 16.7-1.9 6.4 0.1 12.8 2 19.2 0.8 3.6-0.6 6.8-3 8.4-6.3 0.9-4-1.5-8.5 0.9-12.1C292 37.4 295 36.6 297.4 34.9zM92.9 102.3c15.9-6.9 32.9-11.4 50.2-12.2 4.4-0.1 8.9-0.6 13.1 1 6 2.1 13 1 18.3 4.9 8.5 5.1 20 8.2 23.6 18.4 1.2 5.6 1.3 11.3 1.1 17 0.1 5.5-7.4 9-11.5 5.5 -2.2-3.7-0.4-8.6-2.7-12.2 -2.1-3-6.1-2.6-9.1-4.1 -15.3-6.9-32.8-6.3-48.9-3 -12.9 2.6-25.3 6.9-37.7 11 -2.9 0.9-4.6 3.5-7.2 5 -6.6 3.7-14.7 3.5-21.1 7.8 -2.5 1.6-4.1 4.2-5.5 6.7 -5.1 1.2-9.6 4.5-11.6 9.4 -2.1 5.1-3.7 10.6-3.9 16.1 1.7 7.1 2.1 15.8 8.5 20.6 2.8 1.8 3.1 5.5 5.2 7.9 5.9 7.5 14.2 12.4 20.4 19.5 7 4.6 14.2 8.9 21.8 12.2 27.3 16.3 56.8 28.7 82.6 47.4 2 1.3 2.8 3.8 4.9 5 0.8 0.8 2.2 1.2 2.5 2.4 3.6 13.4-2.5 28.3-13.9 35.9 -8.7 4.7-19.9 2.6-27.8 9.2 -6.1 3.3-13.4 1-20 1.3 -5.1-0.5-9.9 2.7-15 1.8 -7.3-0.6-14.5-2.4-21.8-3.4 -5-0.7-10-0.4-15-1.4 -12.8-2.4-26.3-4-37.7-10.9 -4.2-3.8-2.5-10.2-2.1-15.1 6.1-4.3 14.1-4.4 21.1-2.9 10.8 3.3 22.3 6.1 33.6 3.8 14-2.3 28.2 2.1 42.1-0.6 3-0.5 5.7-2 8.7-2.7 3.4-0.1 6.7 0.8 10.1 1 6.8 0.1 13.5-1.4 19.6-4.3 2.3-2-0.2-4.8-1.6-6.6 -1.5-2.1-4.3-2.4-6.4-3.5 -6.2-3.2-9-10.4-15.1-13.9 -2.9-1.7-6.3-1.3-9.5-1 -17.4-12.1-37.7-19.1-55.9-29.7 -4.6-2.5-6.7-7.9-11.2-10.6 -2-1.3-4.5-1.1-6.8-1.1 -5.1-2.8-8.6-7.6-12.9-11.4 -2.5-2.3-5.9-3.3-8.2-5.7 -3.8-4-10.9-5.2-11.5-11.6 -4.6-4.7-5.2-11.7-8.9-16.9 -2.8-3.9-3.2-9-2.4-13.5 1.2-6.9 4.9-13.1 5.9-20 0.3-1.5 0.4-3.2 1.4-4.4 4.3-5.7 11-9 15.4-14.6 1.7-2 2.3-5 4.7-6.3C60.2 119.3 75.9 109.6 92.9 102.3zM731.7 159.3c3.4-1.3 5.4-5.2 9.4-5.3 5.8-1.1 11.1 2.1 16.7 2.1 4.4 0.9 9.5 2.8 11.1 7.5 2 5.8 0.1 12 0.6 17.9 -0.1 1.9 1.1 4.4-0.9 5.7 -3.2 2.7-7.7 1.8-11.5 1.2 -1.8-5.5 1.3-13.3-5.1-16.5 -7 1-14.1 2.5-20.2 6.4 -3.7 2.2-6.6 5.5-9.4 8.7 -5.4 5.6-3.4 14.4-7.7 20.6 7.1 12 19.8 18.6 30.8 26.4 3.1 1.9 3.5 5.7 5.3 8.5 2.6 4.5 5.7 9.9 3.2 15.2 -6.5 15-21.2 23.3-34.4 31.6 -3.1 2.4-7.2 1.3-10.7 2.6 -6 1.7-12.6 5.4-18.7 2.2 -4.8-1.9-6.3-10.1-1.3-12.6 4.8-2.6 10.7-2.5 15.2-5.7 2.9-2.2 6.6-2.6 9.9-3.9 6.7-2.4 13.4-5.9 17.5-11.8 2.2-2.8 1.4-6.9-0.6-9.6 -2.8-3.7-6.9-6.2-11.2-7.9 -5.4-2.3-8-7.9-12.3-11.5 -2.1-2-4.8-2.9-7.5-3.8 -4-10-6.7-21.6-2-31.9C702.6 178.8 716.5 166.4 731.7 159.3zM474.1 185.6c10.5-8.3 21.9-15.7 34.2-21.2 4.2-0.7 8.6-0.6 12.7 0.1 3.8 0.6 5.9 4.2 7.5 7.3 0.9 2.8 0.5 5.7 0.7 8.6 -9.7 5.9-22.6 3.3-31.6 10.6 -2 2.5-5 3.8-7.4 5.7 -1.6 4.3 1.1 9.2-1.5 13.4 6.4 12.3 18.3 20.6 25 32.7 2.6 7.5 0.7 15.8-1 23.3 -3.7 4.9-9.2 8.1-14.9 10.1 -9.8 3.4-20.5 3.5-30.8 3 -2.6 0.1-4.3-2.2-5.4-4.2 -2.1-4.4-1.4-9.4-1-14.1 10-7.1 24.1-2.4 33.4-10.7 -2.5-9-8.6-17.5-17.5-21 -4.4-7.6-8.9-15.7-9.7-24.6C466.1 197.6 468.3 189.9 474.1 185.6z"/><path fill="#ED3133" d="M402.1 178.6c2.4-1.4 4.3-3.8 7-4.7 6.8-0.9 14.1 0.5 19.6 4.9 4.9 4 9.3 8.9 12.6 14.3 1.8 9.2 9.3 17.5 6.2 27.3 0.8 2.1 1.9 4.4 0.9 6.7 -1.8 4.1-5.5 7.1-7.7 11 -12.8 2.2-25.4 7-38.6 5.1 -3.7 5.4-2.7 12.1-2.3 18.2 0.2 3.6 0.6 7.9-2.1 10.7 -2.5 2.5-6.3 2-9.6 2 -4.8-7.2-3.7-16.5-6.6-24.3 -2.4-4.7-8.5-2-12.4-4.3 1.3-3.4-0.3-6.7-1.3-10 -0.7-2 1.4-3.8 3.2-4.1 4.7-1 9.6-1.5 13.8-4.1 -0.1-15.9 2.9-32.5 12.5-45.4C398.5 180.2 400.5 179.7 402.1 178.6zM410.5 193c-2.7 3.7-3.6 8.3-6.1 12.1 2.3 6.9-4.2 13-2.1 20 3.1 1 6.4 1.5 9.7 0.8 6.1-1.2 12.2-2 18.3-3 5.7-0.7 7.7-9.4 2.9-12.5 -5-4.2-5.6-11.3-9.4-16.4C420.8 189.7 413.8 188.7 410.5 193z"/><path fill="#ED3133" d="M652.6 177.1c0.7-1.9 3-3.7 4.9-2 8.9 4.9 11.8 15.4 16.4 23.7 1.7 2.6 1.1 5.8 1.2 8.7 0.2 13.3 3.1 26.9-0.5 40 -2 7.5-7.4 14.1-14.7 17.1 -3.4 1-7.2 0.1-10.1-1.8 -4.6-2.9-8.1-7.3-12.1-11 -4 5-4.6 11.8-8.7 16.7 -3.7 4.9-8.3 10.7-15.2 10.1 0.3-6.6 0.3-13.4 3.1-19.4 -2.2-7.7 0.4-15.5 2.4-22.9 -1.4-3.2-2.2-6.9-0.6-10.2 1.5-2.7 2.9-6.1 6.3-6.7 2.5 4.6 8 4.6 12.4 5.9 7 2.8 8.4 11.7 14.7 15.2 2.4 1.1 6.3 1.9 7.9-0.9 3.1-5.2-0.9-12.1 3.1-17 -1.7-9.3-3.1-19.5-10.2-26.4 0.2-1.6 0.3-3.2 0.5-4.8 -1.6-1.6-4.9-2.9-4.3-5.7C650.3 182.8 651.6 180 652.6 177.1zM279.7 192.2c6.5-1.2 14.3 1.6 17.5 7.7 2.5 8.5 6.2 16.5 9.4 24.8 1.3 3.2 1.7 7.5 5.4 9 5-2.8 5.1-9.2 5.6-14.2 -0.1-3.6 3-6 4.6-9 3.3-5.9 5.7-12.5 10.4-17.6 5.5 1.2 11.9 3.2 14.5 8.8 1.8 12.2-1.3 25.2 4.1 36.8 3 11.6-0.9 23.4-1.7 35 -0.4 2.8 0.5 6.4-2.1 8.4 -2.6 2.6-5.9 6.3-10 4.8 -2.5-2.6-3.8-6.4-3.4-10.1 0.5-3.4 2-6.6 2.6-10.1 2-9.9 1-19.9 0.7-29.9 -1.7-1.7-3.1-5.4-6.1-4.2 -5.4 1.8-7.2 7.6-10.4 11.7 -2.8 3.3-4.6 7.3-7.6 10.5 -3.5 3.5-9.7 2.5-12.5-1.4 -4.4-5.9-3.7-15-10.6-19.1 0.3-4.6 1.4-10-2.1-13.7 -6 2.6-6.2 9.6-6.5 15.1 0.2 3.3-3.4 5.7-2.4 9 1.1 4.6 3.7 9.8 0 14 1.2 8.2-0.7 17.3-7.2 23 -5.2-1.2-12.1-2.8-13.5-8.8 -0.5-15.9 4.4-31.3 5.7-47 3.2-5-0.6-11.3 3-16C270.6 203.4 272.5 195.2 279.7 192.2zM213.5 193c3.3-1.9 7.5-0.4 9.7 2.4 3.6 3.5 2.7 8.9 4.5 13.2 2.4 6.7 4.9 14.3 1.2 21 4.3 8.2-1.3 17.1 0.5 25.7 -3.2 6.3-1.5 13.5-0.7 20.2 0.7 5.3-0.2 11.5-4.5 15.2 -3.7 2.1-8.3 1.8-12.3 1.1 -1.4-0.1-1.9-1.4-2.3-2.5 -1.9-5.2-1-10.8-2-16.2 -0.8-4 0.7-8 1.3-12 2.2-11.3 3.5-23 2.1-34.5 3.4-5.3 2.2-11.7 0.9-17.5C210.6 203.8 209.6 197.4 213.5 193z"/><path fill="#ED3133" d="M544.6 214.1c1.9-4.2 5.9-7.4 10.4-8.2 9-0.1 15.3 8.4 24.3 8.4 6.4 4.9 11.3 12 12.1 20.1 2.8 8.8 4.8 18.6 1 27.5 -2.4 6-8.3 9.3-13.5 12.6 -3.1 1.8-6.1 4.5-10 4 -7.6-0.2-16 2-23-1.9 -10-7.6-14.5-21.1-12.2-33.3 3.2-2.1 6.1-4.9 7.3-8.7C543.2 227.9 541.8 220.6 544.6 214.1zM556.2 231.8c-3.6 7.7-7.4 16-6.4 24.7 0.1 2.3 1.2 4.9 3.7 5.6 4.2 1.1 8.4-0.4 12.6-0.4 2.7-0.2 6.3 0.5 7.8-2.4 1.8-4 0.8-9.6 5.5-11.7 1-5.1-0.6-10.5-3.7-14.5C570.8 227.4 561.9 228.1 556.2 231.8z"/><path fill="#ED3133" d="M763.7 288.1c4.7 0 9.5 0 14.2 0 0 0.9 0 2.6 0 3.5 -1.7 0-3.4 0-5.1 0 0 5 0 10 0 15 -1.4 0-2.8 0-4.2 0 0-5 0-10 0-15 -1.7 0-3.3 0-5 0C763.7 290.7 763.7 289 763.7 288.1zM779.6 306.6c0.4-6.2 0.8-12.3 1.2-18.5 1.8 0 3.7 0 5.6 0 1.3 4.3 2.5 8.6 3.4 12.9 1.1-4.3 2.3-8.6 3.7-12.9 1.8 0 3.7 0 5.5 0 0.3 5.7 0.6 11.4 1 17v1.5c-1.4 0-2.7 0-4.1 0 -0.2-4.9-0.4-9.8-0.5-14.8 -1.4 4.8-2.8 9.7-4.4 14.5 -0.8 0-2.4 0-3.3 0 -1.4-4.8-2.6-9.6-3.7-14.5 -0.2 5-0.4 9.9-0.7 14.8C782.2 306.6 780.9 306.6 779.6 306.6z"/></svg>